<?xml version="1.0" encoding="UTF-8"?><svg width="170" height="34" viewBox="0 0 170 34" xmlns="http://www.w3.org/2000/svg"><g fill="none"><path d="M6.93532338 13.8706468C4.49950249 13.8706468 2.16517413 12.5512438.981094527 10.4537313.372139303 9.40497512.0676616915 8.28855721.0676616915 7.07064677.0676616915 4.66865672 1.38706468 2.4358209 3.51840796 1.21791045 4.60099502.608955224 5.75124378.304477612 6.96915423.304477612 8.76218905.304477612 10.318408.947263682 11.6039801 2.16517413L10.2845771 3.48457711C9.33731343 2.60497512 8.22089552 2.16517413 6.93532338 2.16517413 4.19502488 2.16517413 2.06368159 4.33034826 2.06368159 7.10447761 2.06368159 9.87860697 4.19502488 12.0437811 6.93532338 12.0437811 9.30348259 12.0437811 11.0965174 10.6905473 11.3671642 8.35621891L6.93532338 8.35621891 6.93532338 6.49552239 13.160199 6.49552239C13.2278607 6.83383085 13.2616915 7.20597015 13.2616915 7.64577114 13.2616915 11.3671642 10.5890547 13.8706468 6.93532338 13.8706468zM22.7004975 9.50646766C22.7004975 11.9422886 20.7721393 13.8706468 18.3024876 13.8706468 15.8328358 13.8706468 13.9044776 11.9422886 13.9044776 9.50646766 13.9044776 7.00298507 15.799005 5.14228856 18.3024876 5.14228856 20.7721393 5.14228856 22.7004975 7.00298507 22.7004975 9.50646766zM15.8328358 9.50646766C15.8328358 10.9950249 16.9154229 12.1452736 18.3024876 12.1452736 19.6895522 12.1452736 20.7721393 10.961194 20.7721393 9.50646766 20.7721393 7.9840796 19.6895522 6.86766169 18.3024876 6.86766169 16.9154229 6.83383085 15.8328358 7.95024876 15.8328358 9.50646766zM32.240796 9.50646766C32.240796 11.9422886 30.3124378 13.8706468 27.8427861 13.8706468 25.3731343 13.8706468 23.4447761 11.9422886 23.4447761 9.50646766 23.4447761 7.00298507 25.3393035 5.14228856 27.8427861 5.14228856 30.3124378 5.14228856 32.240796 7.00298507 32.240796 9.50646766zM25.4069652 9.50646766C25.4069652 10.9950249 26.4895522 12.1452736 27.8766169 12.1452736 29.2636816 12.1452736 30.3462687 10.961194 30.3462687 9.50646766 30.3462687 7.9840796 29.2636816 6.86766169 27.8766169 6.86766169 26.4895522 6.86766169 25.4069652 7.95024876 25.4069652 9.50646766zM37.2477612 17.7950249C36.3681592 17.7950249 35.5562189 17.5243781 34.9134328 17.0507463 34.2368159 16.6109453 33.7293532 15.9681592 33.3910448 15.1900498L35.0487562 14.479602C35.4547264 15.3930348 36.2666667 16.0358209 37.2477612 16.0358209 38.8039801 16.0358209 39.5820896 15.1223881 39.5820896 13.2955224L39.5820896 12.8557214 39.5144279 12.8557214C38.9731343 13.5323383 38.1950249 13.8368159 37.2139303 13.8368159 36.0975124 13.8368159 35.1164179 13.3970149 34.2706468 12.5512438 33.4587065 11.7054726 33.0189055 10.6567164 33.0189055 9.47263682 33.0189055 7.07064677 34.9472637 5.07462687 37.2139303 5.07462687 38.1950249 5.07462687 38.9731343 5.41293532 39.5144279 6.05572139L39.5820896 6.05572139 39.5820896 5.34527363 41.4089552 5.34527363 41.4089552 13.1940299C41.4089552 16.1373134 39.8527363 17.7950249 37.2477612 17.7950249zM34.9472637 9.50646766C34.9472637 10.9950249 35.9960199 12.1452736 37.3830846 12.1452736 38.7024876 12.1452736 39.7174129 10.9950249 39.7174129 9.50646766 39.7174129 8.01791045 38.7024876 6.83383085 37.3830846 6.83383085 36.0636816 6.83383085 34.9472637 8.01791045 34.9472637 9.50646766zM42.7283582.744278607L44.6567164.744278607 44.6567164 13.5661692 42.7283582 13.5661692 42.7283582.744278607zM49.9004975 13.8706468C47.4308458 13.8706468 45.5701493 11.9761194 45.5701493 9.50646766 45.5701493 7.00298507 47.3631841 5.14228856 49.6975124 5.14228856 50.5432836 5.14228856 51.321393 5.41293532 51.9641791 5.88656716 52.6069652 6.39402985 53.1144279 7.10447761 53.4189055 7.91641791L53.6218905 8.4238806 47.8029851 10.8258706C48.2427861 11.7054726 48.9532338 12.1452736 49.9343284 12.1452736 50.8139303 12.1452736 51.5243781 11.7393035 52.0995025 10.9273632L53.5880597 11.9084577C52.6746269 13.2278607 51.4567164 13.8706468 49.9004975 13.8706468zM49.7651741 6.8C48.5810945 6.8 47.4308458 7.88258706 47.4985075 9.33731343L51.3890547 7.71343284C51.1522388 7.20597015 50.5094527 6.8 49.7651741 6.8zM57.9860697 13.6L56.2945274 13.6 60.760199 1.75920398 62.4855721 1.75920398 66.9512438 13.6 65.2597015 13.6 64.1094527 10.3860697 59.1363184 10.3860697 57.9860697 13.6zM61.6059701 3.6199005L59.6776119 8.96517413 63.60199 8.96517413 61.6736318 3.6199005 61.6059701 3.6199005zM73.9542289 11.3333333C73.9542289 12.7542289 72.5671642 13.8368159 70.7064677 13.8368159 69.0825871 13.8368159 67.7631841 12.9233831 67.2218905 11.5363184L68.5751244 10.961194C68.9810945 11.9422886 69.7930348 12.4835821 70.7064677 12.4835821 71.6875622 12.4835821 72.39801 12.0099502 72.39801 11.4348259 72.39801 10.9273632 71.9920398 10.5552239 71.2139303 10.2845771L69.8268657 9.94626866C68.2706468 9.54029851 67.4587065 8.7960199 67.4587065 7.67960199 67.4587065 6.19104478 68.8119403 5.24378109 70.6726368 5.24378109 72.1273632 5.24378109 73.3791045 5.9880597 73.8189055 7.13830846L72.4656716 7.71343284C72.161194 7.03681592 71.4169154 6.63084577 70.5373134 6.63084577 69.759204 6.63084577 69.0149254 7.07064677 69.0149254 7.64577114 69.0149254 8.11940299 69.4547264 8.4238806 70.3343284 8.62686567L71.5522388 8.93134328C73.1422886 9.30348259 73.9542289 10.1154229 73.9542289 11.3333333zM81.1263682 11.3333333C81.1263682 12.7542289 79.7393035 13.8368159 77.878607 13.8368159 76.2547264 13.8368159 74.9353234 12.9233831 74.3940299 11.5363184L75.7472637 10.961194C76.1532338 11.9422886 76.9651741 12.4835821 77.878607 12.4835821 78.8597015 12.4835821 79.5701493 12.0099502 79.5701493 11.4348259 79.5701493 10.9273632 79.1641791 10.5552239 78.3860697 10.2845771L76.999005 9.94626866C75.4427861 9.54029851 74.6308458 8.7960199 74.6308458 7.67960199 74.6308458 6.19104478 75.9840796 5.24378109 77.8447761 5.24378109 79.2995025 5.24378109 80.5512438 5.9880597 80.9910448 7.13830846L79.6378109 7.71343284C79.3333333 7.03681592 78.5890547 6.63084577 77.7094527 6.63084577 76.9313433 6.63084577 76.1870647 7.07064677 76.1870647 7.64577114 76.1870647 8.11940299 76.6268657 8.4238806 77.5064677 8.62686567L78.7243781 8.93134328C80.3144279 9.30348259 81.1263682 10.1154229 81.1263682 11.3333333zM84.00199 2.70646766C84.00199 3.31542289 83.5283582 3.78905473 82.919403 3.78905473 82.3104478 3.78905473 81.8368159 3.31542289 81.8368159 2.70646766 81.8368159 2.09751244 82.3104478 1.6238806 82.919403 1.6238806 83.5283582 1.6238806 84.00199 2.09751244 84.00199 2.70646766zM83.6975124 5.48059701L83.6975124 13.6 82.1751244 13.6 82.1751244 5.48059701 83.6975124 5.48059701zM91.5462687 11.3333333C91.5462687 12.7542289 90.159204 13.8368159 88.2985075 13.8368159 86.6746269 13.8368159 85.3552239 12.9233831 84.8139303 11.5363184L86.1671642 10.961194C86.5731343 11.9422886 87.3850746 12.4835821 88.2985075 12.4835821 89.279602 12.4835821 89.9900498 12.0099502 89.9900498 11.4348259 89.9900498 10.9273632 89.5840796 10.5552239 88.8059701 10.2845771L87.4189055 9.94626866C85.8626866 9.54029851 85.0507463 8.7960199 85.0507463 7.67960199 85.0507463 6.19104478 86.4039801 5.24378109 88.2646766 5.24378109 89.719403 5.24378109 90.9711443 5.9880597 91.4109453 7.13830846L90.0577114 7.71343284C89.7532338 7.03681592 89.0089552 6.63084577 88.1293532 6.63084577 87.3512438 6.63084577 86.6069652 7.07064677 86.6069652 7.64577114 86.6069652 8.11940299 87.0467662 8.4238806 87.9263682 8.62686567L89.1442786 8.93134328C90.7343284 9.30348259 91.5462687 10.1154229 91.5462687 11.3333333zM95.6736318 13.7353234C94.3542289 13.7353234 93.3731343 12.8895522 93.3731343 11.4348259L93.3731343 6.86766169 91.9522388 6.86766169 91.9522388 5.48059701 93.3731343 5.48059701 93.3731343 3.01094527 94.8955224 3.01094527 94.8955224 5.48059701 96.8915423 5.48059701 96.8915423 6.86766169 94.8955224 6.86766169 94.8955224 10.8935323C94.8955224 11.9761194 95.4029851 12.280597 95.9104478 12.280597 96.1472637 12.280597 96.3840796 12.2129353 96.5870647 12.1452736L97.0606965 13.4985075C96.6547264 13.6676617 96.2149254 13.7353234 95.6736318 13.7353234zM100.917413 5.20995025C103.150249 5.20995025 104.571144 6.49552239 104.571144 8.59303483L104.571144 13.6 103.116418 13.6 103.116418 12.4835821 103.048756 12.4835821C102.40597 13.3970149 101.560199 13.8706468 100.545274 13.8706468 98.7522388 13.8706468 97.399005 12.6865672 97.399005 11.0965174 97.399005 9.43880597 98.7860697 8.35621891 100.883582 8.35621891 101.797015 8.35621891 102.541294 8.52537313 103.116418 8.86368159L103.116418 8.52537313C103.116418 7.47661692 102.135323 6.63084577 101.018905 6.63084577 100.173134 6.63084577 99.4965174 7.00298507 98.9890547 7.71343284L97.6358209 6.86766169C98.3800995 5.75124378 99.4626866 5.20995025 100.917413 5.20995025zM98.921393 11.1303483C98.921393 11.9084577 99.6995025 12.5174129 100.612935 12.5174129 101.898507 12.5174129 103.082587 11.400995 103.082587 10.1492537 102.608955 9.77711443 101.932338 9.57412935 101.086567 9.57412935 99.8686567 9.57412935 98.921393 10.2507463 98.921393 11.1303483zM105.924378 5.48059701L107.379104 5.48059701 107.379104 6.59701493 107.446766 6.59701493C107.920398 5.81890547 108.969154 5.20995025 110.01791 5.20995025 112.01393 5.20995025 113.096517 6.39402985 113.096517 8.49154229L113.096517 13.6 111.574129 13.6 111.574129 8.59303483C111.540299 7.27363184 110.863682 6.59701493 109.578109 6.59701493 108.360199 6.59701493 107.446766 7.71343284 107.446766 9.10049751L107.446766 13.5661692 105.924378 13.5661692 105.924378 5.48059701 105.924378 5.48059701zM117.359204 13.7353234C116.039801 13.7353234 115.058706 12.8895522 115.058706 11.4348259L115.058706 6.86766169 113.637811 6.86766169 113.637811 5.48059701 115.058706 5.48059701 115.058706 3.01094527 116.581095 3.01094527 116.581095 5.48059701 118.577114 5.48059701 118.577114 6.86766169 116.581095 6.86766169 116.581095 10.8935323C116.581095 11.9761194 117.088557 12.280597 117.59602 12.280597 117.832836 12.280597 118.069652 12.2129353 118.272637 12.1452736L118.746269 13.4985075C118.340299 13.6676617 117.900498 13.7353234 117.359204 13.7353234z" transform="translate(50.408 7.781)" fill="#767676"/><path d="M34.4736318,11.7731343 C35.8606965,11.7731343 37.0109453,10.6567164 37.0109453,9.2358209 C37.0109453,7.84875622 35.8945274,6.69850746 34.4736318,6.69850746 C33.0865672,6.69850746 31.9363184,7.81492537 31.9363184,9.2358209 C31.9701493,10.6567164 33.0865672,11.7731343 34.4736318,11.7731343" fill="#00A94B"/><path d="M26.8955224,20.1970149 C29.6696517,20.1970149 31.9363184,17.9303483 31.9363184,15.1562189 C31.9363184,12.3820896 29.6696517,10.1154229 26.8955224,10.1154229 C24.121393,10.1154229 21.8547264,12.3820896 21.8547264,15.1562189 C21.8547264,17.9303483 24.121393,20.1970149 26.8955224,20.1970149" fill="#FF4131"/><path d="M26.8955224,33.6278607 C30.1432836,33.6278607 32.7820896,30.9890547 32.7820896,27.7412935 C32.7820896,24.4935323 30.1432836,21.8547264 26.8955224,21.8547264 C23.6477612,21.8547264 21.0089552,24.4935323 21.0089552,27.7412935 C21.0089552,30.9890547 23.6477612,33.6278607 26.8955224,33.6278607" fill="#FB0"/><path d="M10.081592,20.1970149 C15.6636816,20.1970149 20.1633722,15.6636816 20.1633722,10.1154229 C20.1970149,4.53333333 15.6636816,0 10.081592,0 C4.53333333,0 0,4.53333333 0,10.081592 C0,15.6636816 4.53333333,20.1970149 10.081592,20.1970149" fill="#0084F7"/></g></svg>