<?xml version="1.0" encoding="UTF-8"?><svg width="170" height="24" viewBox="0 0 170 24" xmlns="http://www.w3.org/2000/svg"><g fill="none"><path d="M11.8348582,0.40809856 C5.3562936,0.40809856 0.10202464,5.71337984 0.10202464,12.1409322 C0.10202464,18.5684845 5.3562936,23.8737657 11.8348582,23.8737657 C18.3134229,23.8737657 23.5676918,18.5684845 23.5676918,12.1409322 C23.5676918,5.71337984 18.3134229,0.40809856 11.8348582,0.40809856 Z M9.9984147,23.7207288 L9.9984147,21.4251744 C9.9984147,20.6089773 9.48829148,19.8437925 8.72310672,19.5377185 C5.8664168,18.3134229 3.82592399,15.456733 3.82592399,12.1409322 C3.82592399,7.75387262 7.39678641,4.13199792 11.8348582,4.13199792 C16.2729301,4.13199792 19.8437925,7.75387262 19.8437925,12.1409322 C19.8437925,17.3441888 15.8138192,22.2413715 9.9984147,23.7207288 Z" fill="#00CAFF"/><path d="M5.20325664 5.50933056C8.00893423 5.50933056 9.43727921 6.73362625 9.43727921 9.13120527L9.43727921 17.8032997C9.43727921 18.0583613 9.33525455 18.1603859 9.08019294 18.1603859L8.57006978 18.1603859C8.31500817 18.1603859 8.2129835 18.0583613 8.16197117 17.8032997L8.05994656 16.732041C6.68261391 17.854312 5.20325664 18.4154475 3.67288704 18.4154475 2.550616 18.4154475 1.63239424 18.1093736 1.0202464 17.4462134.30607392 16.8340656 0 15.9668561 0 14.8955974 0 13.722314.40809856 12.75308 1.22429568 12.0899198 2.0404928 11.4267597 3.16276384 11.0696734 4.54009647 11.0696734 5.05021967 11.0696734 5.61135519 11.1206857 6.27451535 11.2227104 6.88666319 11.324735 7.49881101 11.477772 8.05994656 11.630809L8.05994656 9.59031615C8.05994656 8.62108205 7.80488495 7.90690962 7.34577407 7.44779874 6.88666319 7.03970013 6.07046608 6.78463858 4.99920736 6.78463858 3.97896095 6.78463858 2.90770224 6.93767552 1.7854312 7.29476174 1.58138192 7.34577407 1.47935728 7.39678641 1.37733264 7.44779874 1.275308 7.49881101 1.17328336 7.49881101 1.12227104 7.49881101.918221761 7.49881101.816197117 7.39678641.816197117 7.19273713L.816197117 6.78463858C.816197117 6.52957697.918221761 6.37654 1.12227104 6.27451535 1.73441888 6.01945376 2.39757904 5.8664168 3.11175152 5.71337984 3.82592399 5.56034287 4.54009647 5.50933056 5.20325664 5.50933056zM4.8461704 12.2429568C2.550616 12.2429568 1.42834496 13.1101662 1.42834496 14.8955974 1.42834496 16.425967 2.24454208 17.1911518 3.82592399 17.1911518 4.43807184 17.1911518 5.101232 17.0891272 5.81540447 16.8340656 6.52957697 16.579004 7.2437494 16.2219177 8.00893423 15.7628068L8.00893423 12.7020677C6.93767552 12.3959937 5.8664168 12.2429568 4.8461704 12.2429568zM26.8324803 5.50933056C27.9547514 5.50933056 28.8219608 5.81540447 29.3830963 6.4275523 29.9442318 7.03970013 30.2503057 7.95792189 30.2503057 9.18221761L30.2503057 17.7522873C30.2503057 18.0073489 30.1482811 18.1093736 29.8932195 18.1093736L29.2300593 18.1093736C28.9749977 18.1093736 28.8729731 18.0073489 28.8729731 17.7522873L28.8729731 9.79436543C28.8729731 8.72310672 28.6689238 7.95792189 28.3118376 7.44779874 27.9547514 6.98868786 27.3426035 6.73362625 26.5264064 6.73362625 24.9450245 6.73362625 23.4656672 7.2437494 22.0883345 8.26399584 22.1393469 8.67209439 22.1393469 9.0291806 22.1393469 9.43727921L22.1393469 17.7522873C22.1393469 18.0073489 22.0373222 18.1093736 21.7822606 18.1093736L21.1191004 18.1093736C20.8640388 18.1093736 20.7620142 18.0073489 20.7620142 17.7522873L20.7620142 9.79436543C20.7620142 8.72310672 20.557965 7.95792189 20.2008787 7.44779874 19.8437925 6.98868786 19.2316446 6.73362625 18.4154475 6.73362625 16.8850779 6.73362625 15.456733 7.2437494 14.0794003 8.2129835L14.0794003 17.7522873C14.0794003 18.0073489 13.9773757 18.1093736 13.722314 18.1093736L13.0591539 18.1093736C12.8040923 18.1093736 12.7020677 18.0073489 12.7020677 17.7522873L12.7020677 6.22350304C12.7020677 5.96844143 12.8040923 5.8664168 13.0591539 5.8664168L13.5692771 5.8664168C13.8243387 5.8664168 13.9773757 5.96844143 13.9773757 6.22350304L14.0794003 7.19273713C14.7935728 6.63160158 15.5587576 6.22350304 16.3749547 5.91742911 17.1911518 5.61135519 17.9563366 5.45831823 18.7215214 5.45831823 20.251891 5.45831823 21.2721375 6.07046608 21.7822606 7.34577407 22.5474454 6.73362625 23.3636425 6.27451535 24.230852 5.91742911 25.1490737 5.66236752 25.9652708 5.50933056 26.8324803 5.50933056zM37.9531661 5.50933056C40.7588436 5.50933056 42.1871886 6.73362625 42.1871886 9.13120527L42.1871886 17.8032997C42.1871886 18.0583613 42.085164 18.1603859 41.8301023 18.1603859L41.3199792 18.1603859C41.0649176 18.1603859 40.9628929 18.0583613 40.9118806 17.8032997L40.809856 16.732041C39.4325233 17.854312 37.9531661 18.4154475 36.4227965 18.4154475 35.3005254 18.4154475 34.3823037 18.1093736 33.7701558 17.4462134 33.1069956 16.7830533 32.8009217 15.9668561 32.8009217 14.8445851 32.8009217 13.6713018 33.2090203 12.7020677 34.0252174 12.0389075 34.8414146 11.3757474 35.9636856 11.0186611 37.3410182 11.0186611 37.8511414 11.0186611 38.412277 11.0696734 39.0754371 11.1716981 39.6875849 11.2737227 40.2997328 11.4267597 40.8608683 11.5797966L40.8608683 9.53930382C40.8608683 8.57006978 40.6058067 7.85589729 40.1466958 7.39678641 39.6875849 6.98868786 38.8713878 6.73362625 37.8001291 6.73362625 36.7798827 6.73362625 35.708624 6.88666319 34.5863529 7.2437494 34.3823037 7.29476174 34.280279 7.34577407 34.1782544 7.39678641 34.0762297 7.44779874 33.9742051 7.44779874 33.9231928 7.44779874 33.7191435 7.44779874 33.6171188 7.34577407 33.6171188 7.1417248L33.6171188 6.73362625C33.6171188 6.47856464 33.7191435 6.32552767 33.9231928 6.22350304 34.5353406 5.96844143 35.1985008 5.81540447 35.9126733 5.66236752 36.5758334 5.56034287 37.2900059 5.50933056 37.9531661 5.50933056zM37.6470921 12.2429568C35.3515377 12.2429568 34.2292667 13.1101662 34.2292667 14.8955974 34.2292667 16.425967 35.0454638 17.1911518 36.6268458 17.1911518 37.2389936 17.1911518 37.9021537 17.0891272 38.6163262 16.8340656 39.3304987 16.579004 40.0446711 16.2219177 40.809856 15.7628068L40.809856 12.7020677C39.6875849 12.3959937 38.6163262 12.2429568 37.6470921 12.2429568zM53.8690099 17.2931764L53.8690099 17.8032997C53.8690099 18.0583613 53.7669853 18.1603859 53.5119236 18.1603859L44.8908416 18.1603859C44.63578 18.1603859 44.5337553 18.0583613 44.5337553 17.8032997L44.5337553 17.2931764C44.5337553 17.1401395 44.5337553 16.9871026 44.5847676 16.8850779 44.63578 16.7830533 44.6867923 16.6810286 44.8398293 16.5279917L52.2876279 7.09071246 45.1969155 7.09071246C44.9418539 7.09071246 44.8398293 6.98868786 44.8398293 6.73362625L44.8398293 6.22350304C44.8398293 5.96844143 44.9418539 5.8664168 45.1969155 5.8664168L53.5119236 5.8664168C53.7669853 5.8664168 53.8690099 5.96844143 53.8690099 6.22350304L53.8690099 6.73362625C53.8690099 6.88666319 53.8690099 6.98868786 53.8179975 7.09071246 53.7669853 7.19273713 53.7159729 7.34577407 53.562936 7.49881101L46.1151372 16.9360902 53.562936 16.9360902C53.7669853 16.9360902 53.8690099 17.0381149 53.8690099 17.2931764zM61.061747 18.5174722C59.2763158 18.5174722 57.8989831 17.9563366 56.8787368 16.8340656 55.8584903 15.7117945 55.3993794 14.0794003 55.3993794 11.9878952 55.3993794 9.8963901 55.9095027 8.31500817 56.8787368 7.19273713 57.8989831 6.07046608 59.2763158 5.50933056 61.061747 5.50933056 62.8471782 5.50933056 64.2245109 6.07046608 65.244757 7.19273713 66.2650036 8.31500817 66.7241142 9.8963901 66.7241142 11.9878952 66.7241142 14.0794003 66.2139915 15.6607822 65.244757 16.8340656 64.2245109 17.9563366 62.8471782 18.5174722 61.061747 18.5174722zM61.061747 17.2421642C63.8674246 17.2421642 65.2957697 15.5077452 65.2957697 11.9878952 65.2957697 8.51905745 63.8674246 6.73362625 61.061747 6.73362625 58.2560694 6.73362625 56.8277244 8.46804511 56.8277244 11.9878952 56.8277244 15.5077452 58.2560694 17.2421642 61.061747 17.2421642zM75.8553197 5.50933056C77.0796156 5.50933056 77.9978374 5.81540447 78.609985 6.4275523 79.2221327 7.03970013 79.5282068 7.95792189 79.5282068 9.18221761L79.5282068 17.7522873C79.5282068 18.0073489 79.4261819 18.1093736 79.1711205 18.1093736L78.5079601 18.1093736C78.2528988 18.1093736 78.1508745 18.0073489 78.1508745 17.7522873L78.1508745 9.79436543C78.1508745 8.72310672 77.9468246 7.95792189 77.5387262 7.44779874 77.1306278 6.98868786 76.4674674 6.73362625 75.6002584 6.73362625 74.7330488 6.73362625 73.9168519 6.88666319 73.1516666 7.1417248 72.3864819 7.39678641 71.6212972 7.80488495 70.8561125 8.31500817L70.8561125 17.7522873C70.8561125 18.0073489 70.7540876 18.1093736 70.4990262 18.1093736L69.8358658 18.1093736C69.5808044 18.1093736 69.4787795 18.0073489 69.4787795 17.7522873L69.4787795 6.22350304C69.4787795 5.96844143 69.5808044 5.8664168 69.8358658 5.8664168L70.3459891 5.8664168C70.6010511 5.8664168 70.7540876 5.96844143 70.7540876 6.22350304L70.8561125 7.29476174C71.6212972 6.73362625 72.4885068 6.27451535 73.3557158 5.96844143 74.1719133 5.66236752 75.0391229 5.50933056 75.8553197 5.50933056zM93.1484962 5.50933056C95.9541737 5.50933056 97.3825188 6.73362625 97.3825188 9.13120527L97.3825188 17.8032997C97.3825188 18.0583613 97.2804939 18.1603859 97.0254325 18.1603859L96.5153092 18.1603859C96.2602478 18.1603859 96.1582229 18.0583613 96.1072108 17.8032997L96.0051865 16.732041C94.6278535 17.854312 93.1484962 18.4154475 91.6181268 18.4154475 90.4958559 18.4154475 89.5776341 18.1093736 88.9654858 17.4462134 88.3023261 16.7830533 87.9962519 15.9668561 87.9962519 14.8445851 87.9962519 13.6713018 88.4043503 12.7020677 89.2205478 12.0389075 90.0367447 11.3757474 91.1590156 11.0186611 92.5363486 11.0186611 93.0464713 11.0186611 93.6076068 11.0696734 94.2707672 11.1716981 94.8829148 11.2737227 95.4950631 11.4267597 96.0561986 11.5797966L96.0561986 9.53930382C96.0561986 8.57006978 95.8011366 7.85589729 95.3420261 7.39678641 94.8829148 6.98868786 94.066718 6.73362625 92.9954592 6.73362625 91.9752131 6.73362625 90.9039543 6.88666319 89.7816833 7.2437494 89.5776341 7.29476174 89.4756092 7.34577407 89.3735842 7.39678641 89.27156 7.44779874 89.169535 7.44779874 89.1185229 7.44779874 88.9144737 7.44779874 88.8124488 7.34577407 88.8124488 7.1417248L88.8124488 6.73362625C88.8124488 6.47856464 88.9144737 6.32552767 89.1185229 6.22350304 89.7306705 5.96844143 90.3938309 5.81540447 91.1080035 5.66236752 91.7711639 5.56034287 92.4853358 5.50933056 93.1484962 5.50933056zM92.79141 12.2429568C90.4958559 12.2429568 89.3735842 13.1101662 89.3735842 14.8955974 89.3735842 16.425967 90.1897817 17.1911518 91.7711639 17.1911518 92.3833115 17.1911518 93.0464713 17.0891272 93.7606439 16.8340656 94.4748164 16.579004 95.188989 16.2219177 95.9541737 15.7628068L95.9541737 12.7020677C94.8829148 12.3959937 93.8116567 12.2429568 92.79141 12.2429568zM100.596295.45911088C100.596295.20404928 100.69832.10202464 100.953381.10202464L101.616541.10202464C101.871603.10202464 101.973628.20404928 101.973628.45911088L101.973628 16.0688808C101.973628 16.425967 102.02464 16.6810286 102.177677 16.8340656 102.330714 16.9871026 102.585775 17.0381149 102.942862 17.0381149 103.044886 17.0381149 103.146911 17.0381149 103.248936 17.0381149 103.35096 17.0381149 103.452985 17.0381149 103.55501 17.0381149 103.759059 17.0381149 103.912095 17.1401395 103.912095 17.3952011L103.912095 17.854312C103.912095 18.0583613 103.810071 18.1603859 103.606022 18.2113982 103.503997 18.2624105 103.35096 18.2624105 103.197924 18.2624105 102.993874 18.2624105 102.840837 18.2624105 102.6878 18.2624105 102.02464 18.2624105 101.514516 18.0583613 101.157431 17.7012751 100.800345 17.3441888 100.596295 16.7830533 100.596295 16.1198931L100.596295.45911088 100.596295.45911088zM114.11456 16.8340656C114.318609 16.7830533 114.471646 16.732041 114.57367 16.6810286 114.675695 16.6300163 114.77772 16.6300163 114.828732 16.6300163 115.032782 16.6300163 115.134806 16.732041 115.134806 16.9360902L115.134806 17.2931764C115.134806 17.548238 115.032782 17.7012751 114.879745 17.8032997 113.706461 18.3134229 112.482165 18.5174722 111.155845 18.5174722 109.26839 18.5174722 107.840045 17.9563366 106.870811 16.8850779 105.901576 15.8138192 105.391453 14.2324373 105.391453 12.1409322 105.391453 11.1206857 105.54449 10.202464 105.799552 9.38626688 106.054613 8.57006978 106.462712 7.85589729 106.921823 7.29476174 107.431946 6.73362625 108.044094 6.27451535 108.758266 5.96844143 109.472439 5.66236752 110.288636 5.50933056 111.155845 5.50933056 112.58419 5.50933056 113.655449 5.81540447 114.420634 6.47856464 115.185819 7.1417248 115.593917 8.05994656 115.593917 9.23322994 115.593917 10.4065133 115.185819 11.2227104 114.369621 11.7838459 113.553424 12.3449815 112.278116 12.600043 110.543697 12.600043 109.931549 12.600043 109.319402 12.5490307 108.656241 12.4980184 108.044094 12.4470061 107.380933 12.2939691 106.768786 12.1409322 106.768786 13.875351 107.125872 15.2016714 107.891057 16.0178685 108.656241 16.8340656 109.7275 17.2931764 111.206857 17.2931764 112.176091 17.2421642 113.145326 17.1401395 114.11456 16.8340656zM111.002808 6.73362625C109.778512 6.73362625 108.809278 7.09071246 108.095106 7.80488495 107.380933 8.51905745 106.972835 9.59031615 106.819798 10.9676488 107.431946 11.1206857 108.095106 11.2737227 108.707254 11.324735 109.319402 11.4267597 109.982562 11.4267597 110.59471 11.4267597 111.819005 11.4267597 112.737227 11.2227104 113.298362 10.8656241 113.859498 10.5085379 114.165572 9.94740237 114.165572 9.13120527 114.165572 7.54982335 113.094313 6.73362625 111.002808 6.73362625zM122.174507 12.75308L118.654657 17.9053243C118.501619 18.1093736 118.348582 18.1603859 118.144533 18.1603859L117.481373 18.1603859C117.277324 18.1603859 117.175299 18.0583613 117.175299 17.9053243 117.175299 17.854312 117.226311 17.7522873 117.328336 17.5992504L121.511346 11.7838459 117.685422 6.47856464C117.583398 6.32552767 117.532385 6.22350304 117.532385 6.17249071 117.532385 5.96844143 117.63441 5.91742911 117.838459 5.91742911L118.603644 5.91742911C118.807693 5.91742911 119.011742 6.01945376 119.113767 6.17249071L122.327544 10.7125872 125.490307 6.12147839C125.643344 5.91742911 125.796381 5.8664168 126.00043 5.8664168L126.66359 5.8664168C126.86764 5.8664168 126.969665 5.96844143 126.969665 6.12147839 126.969665 6.17249071 126.918652 6.27451535 126.816627 6.4275523L123.041715 11.630809 127.224726 17.548238C127.326751 17.7012751 127.377763 17.8032997 127.377763 17.854312 127.377763 18.0583613 127.275738 18.1093736 127.071689 18.1093736L126.306504 18.1093736C126.102455 18.1093736 125.949418 18.0073489 125.796381 17.854312L122.174507 12.75308zM133.856327 5.50933056C136.662005 5.50933056 138.09035 6.73362625 138.09035 9.13120527L138.09035 17.8032997C138.09035 18.0583613 137.988326 18.1603859 137.733264 18.1603859L137.22314 18.1603859C136.968079 18.1603859 136.866054 18.0583613 136.815042 17.8032997L136.713018 16.732041C135.335685 17.854312 133.856327 18.4154475 132.325958 18.4154475 131.203687 18.4154475 130.285465 18.1093736 129.673317 17.4462134 129.010157 16.7830533 128.704083 15.9668561 128.704083 14.8445851 128.704083 13.6713018 129.112182 12.7020677 129.928379 12.0389075 130.744576 11.3757474 131.866847 11.0186611 133.24418 11.0186611 133.754303 11.0186611 134.315439 11.0696734 134.978598 11.1716981 135.590747 11.2737227 136.202894 11.4267597 136.76403 11.5797966L136.76403 9.53930382C136.76403 8.57006978 136.508968 7.85589729 136.049857 7.39678641 135.590747 6.98868786 134.774549 6.73362625 133.70329 6.73362625 132.683044 6.73362625 131.611786 6.88666319 130.489515 7.2437494 130.285465 7.29476174 130.18344 7.34577407 130.081416 7.39678641 129.979391 7.44779874 129.877367 7.44779874 129.826354 7.44779874 129.622305 7.44779874 129.520281 7.34577407 129.520281 7.1417248L129.520281 6.73362625C129.520281 6.47856464 129.622305 6.32552767 129.826354 6.22350304 130.438502 5.96844143 131.101662 5.81540447 131.815835 5.66236752 132.478995 5.56034287 133.142155 5.50933056 133.856327 5.50933056zM133.499241 12.2429568C131.203687 12.2429568 130.081416 13.1101662 130.081416 14.8955974 130.081416 16.425967 130.897613 17.1911518 132.478995 17.1911518 133.091143 17.1911518 133.754303 17.0891272 134.468475 16.8340656 135.182648 16.579004 135.89682 16.2219177 136.662005 15.7628068L136.662005 12.7020677C135.539734 12.3959937 134.519488 12.2429568 133.499241 12.2429568z" transform="translate(31.118 1.53)" fill="#333E48"/></g></svg>